<mxfile host="app.diagrams.net" modified="2023-07-13T08:25:03.655Z" agent="Mozilla/5.0 (Macintosh; Intel Mac OS X 10_15_7) AppleWebKit/605.1.15 (KHTML, like Gecko) Version/16.5.1 Safari/605.1.15" etag="jo6qghOSEYwgjIfAgzDC" version="21.6.2" type="device">
  <diagram id="xULNgkMAicbYTIJKRvCF" name="Page-1">
    <mxGraphModel dx="677" dy="1046" grid="1" gridSize="5" guides="1" tooltips="1" connect="1" arrows="1" fold="1" page="0" pageScale="1" pageWidth="850" pageHeight="1100" math="0" shadow="0">
      <root>
        <mxCell id="0" />
        <mxCell id="1" parent="0" />
        <mxCell id="xaRr7g9CqD9QXeJnPNfc-1" style="edgeStyle=orthogonalEdgeStyle;rounded=0;orthogonalLoop=1;jettySize=auto;html=1;exitX=0;exitY=0.25;exitDx=0;exitDy=0;endArrow=none;endFill=0;startArrow=classic;startFill=1;strokeWidth=2;" parent="1" source="kUnSIDznniqPs84h5c2G-1" edge="1">
          <mxGeometry relative="1" as="geometry">
            <mxPoint x="460" y="425" as="targetPoint" />
            <Array as="points">
              <mxPoint x="460" y="408" />
            </Array>
          </mxGeometry>
        </mxCell>
        <mxCell id="xaRr7g9CqD9QXeJnPNfc-2" style="edgeStyle=orthogonalEdgeStyle;rounded=0;orthogonalLoop=1;jettySize=auto;html=1;exitX=0;exitY=0.75;exitDx=0;exitDy=0;endArrow=none;endFill=0;startArrow=classic;startFill=1;strokeWidth=2;" parent="1" source="kUnSIDznniqPs84h5c2G-1" edge="1">
          <mxGeometry relative="1" as="geometry">
            <mxPoint x="460" y="443.1428571428571" as="targetPoint" />
          </mxGeometry>
        </mxCell>
        <mxCell id="kUnSIDznniqPs84h5c2G-1" value="&lt;font style=&quot;font-size: 16px;&quot; face=&quot;LMRoman10-Regular&quot;&gt;&lt;i&gt;text&lt;/i&gt; Segment&lt;/font&gt;" style="rounded=0;whiteSpace=wrap;html=1;strokeWidth=2;" parent="1" vertex="1">
          <mxGeometry x="520.5" y="390.5" width="160" height="70" as="geometry" />
        </mxCell>
        <mxCell id="xaRr7g9CqD9QXeJnPNfc-4" style="edgeStyle=orthogonalEdgeStyle;rounded=0;orthogonalLoop=1;jettySize=auto;html=1;exitX=0;exitY=0.25;exitDx=0;exitDy=0;endArrow=none;endFill=0;startArrow=classic;startFill=1;strokeWidth=2;" parent="1" source="kUnSIDznniqPs84h5c2G-2" edge="1">
          <mxGeometry relative="1" as="geometry">
            <mxPoint x="480" y="495" as="targetPoint" />
            <Array as="points">
              <mxPoint x="480" y="478" />
            </Array>
          </mxGeometry>
        </mxCell>
        <mxCell id="xaRr7g9CqD9QXeJnPNfc-5" style="edgeStyle=orthogonalEdgeStyle;rounded=0;orthogonalLoop=1;jettySize=auto;html=1;exitX=0;exitY=0.75;exitDx=0;exitDy=0;endArrow=none;endFill=0;startArrow=classic;startFill=1;strokeWidth=2;" parent="1" source="kUnSIDznniqPs84h5c2G-2" edge="1">
          <mxGeometry relative="1" as="geometry">
            <mxPoint x="480" y="512.8571428571429" as="targetPoint" />
          </mxGeometry>
        </mxCell>
        <mxCell id="kUnSIDznniqPs84h5c2G-2" value="&lt;font style=&quot;font-size: 16px;&quot; face=&quot;LMRoman10-Regular&quot;&gt;&lt;i&gt;rodata&lt;/i&gt; Segment&lt;/font&gt;" style="rounded=0;whiteSpace=wrap;html=1;strokeWidth=2;" parent="1" vertex="1">
          <mxGeometry x="520.5" y="460.5" width="160" height="70" as="geometry" />
        </mxCell>
        <mxCell id="xaRr7g9CqD9QXeJnPNfc-6" style="edgeStyle=orthogonalEdgeStyle;rounded=0;orthogonalLoop=1;jettySize=auto;html=1;exitX=0;exitY=0.25;exitDx=0;exitDy=0;endArrow=none;endFill=0;startArrow=classic;startFill=1;strokeWidth=2;" parent="1" source="kUnSIDznniqPs84h5c2G-3" edge="1">
          <mxGeometry relative="1" as="geometry">
            <mxPoint x="500" y="565" as="targetPoint" />
          </mxGeometry>
        </mxCell>
        <mxCell id="xaRr7g9CqD9QXeJnPNfc-7" style="edgeStyle=orthogonalEdgeStyle;rounded=0;orthogonalLoop=1;jettySize=auto;html=1;exitX=0;exitY=0.75;exitDx=0;exitDy=0;endArrow=none;endFill=0;startArrow=classic;startFill=1;strokeWidth=2;" parent="1" source="kUnSIDznniqPs84h5c2G-3" edge="1">
          <mxGeometry relative="1" as="geometry">
            <mxPoint x="500" y="582.952380952381" as="targetPoint" />
          </mxGeometry>
        </mxCell>
        <mxCell id="kUnSIDznniqPs84h5c2G-3" value="&lt;font style=&quot;font-size: 16px;&quot; face=&quot;LMRoman10-Regular&quot;&gt;&lt;i&gt;data&lt;/i&gt; Segment&lt;/font&gt;" style="rounded=0;whiteSpace=wrap;html=1;strokeWidth=2;" parent="1" vertex="1">
          <mxGeometry x="520.5" y="530.5" width="160" height="70" as="geometry" />
        </mxCell>
        <mxCell id="kUnSIDznniqPs84h5c2G-4" value="&lt;font style=&quot;font-size: 16px;&quot; face=&quot;LMRoman10-Regular&quot;&gt;Header&lt;/font&gt;" style="rounded=0;whiteSpace=wrap;html=1;" parent="1" vertex="1">
          <mxGeometry x="280" y="390" width="160" height="30" as="geometry" />
        </mxCell>
        <mxCell id="kUnSIDznniqPs84h5c2G-5" value="&lt;font style=&quot;font-size: 16px;&quot; face=&quot;LMRoman10-Regular&quot;&gt;Segment 1&lt;/font&gt;" style="rounded=0;whiteSpace=wrap;html=1;" parent="1" vertex="1">
          <mxGeometry x="280" y="420" width="160" height="30" as="geometry" />
        </mxCell>
        <mxCell id="kUnSIDznniqPs84h5c2G-6" value="&lt;span style=&quot;font-family: LMRoman10-Regular; font-size: 16px;&quot;&gt;Segment&lt;/span&gt;&lt;font style=&quot;font-size: 16px;&quot; face=&quot;LMRoman10-Regular&quot;&gt;&amp;nbsp;2&lt;/font&gt;" style="rounded=0;whiteSpace=wrap;html=1;" parent="1" vertex="1">
          <mxGeometry x="280" y="450" width="160" height="30" as="geometry" />
        </mxCell>
        <mxCell id="kUnSIDznniqPs84h5c2G-7" value="&lt;span style=&quot;font-family: LMRoman10-Regular; font-size: 16px;&quot;&gt;Segment&lt;/span&gt;&lt;font style=&quot;font-size: 16px;&quot; face=&quot;LMRoman10-Regular&quot;&gt;&amp;nbsp;3&lt;/font&gt;" style="rounded=0;whiteSpace=wrap;html=1;" parent="1" vertex="1">
          <mxGeometry x="280" y="480" width="160" height="30" as="geometry" />
        </mxCell>
        <mxCell id="kUnSIDznniqPs84h5c2G-8" value="&lt;font style=&quot;font-size: 16px;&quot; face=&quot;LMRoman10-Regular&quot;&gt;Relocation Table&lt;br&gt;&lt;/font&gt;" style="rounded=0;whiteSpace=wrap;html=1;" parent="1" vertex="1">
          <mxGeometry x="280" y="510" width="160" height="30" as="geometry" />
        </mxCell>
        <mxCell id="kUnSIDznniqPs84h5c2G-9" value="&lt;font style=&quot;font-size: 16px;&quot; face=&quot;LMRoman10-Regular&quot;&gt;Debug Table&lt;br&gt;&lt;/font&gt;" style="rounded=0;whiteSpace=wrap;html=1;" parent="1" vertex="1">
          <mxGeometry x="280" y="540" width="160" height="30" as="geometry" />
        </mxCell>
        <mxCell id="kUnSIDznniqPs84h5c2G-15" value="&lt;b&gt;Image Address Space&lt;/b&gt;" style="text;html=1;strokeColor=none;fillColor=none;align=center;verticalAlign=middle;whiteSpace=wrap;rounded=0;fontFamily=LMRoman10-Regular;fontSize=16;fontColor=default;" parent="1" vertex="1">
          <mxGeometry x="520" y="360" width="160" height="30" as="geometry" />
        </mxCell>
        <mxCell id="kUnSIDznniqPs84h5c2G-16" value="&lt;b&gt;Image File&lt;/b&gt;" style="text;html=1;strokeColor=none;fillColor=none;align=center;verticalAlign=middle;whiteSpace=wrap;rounded=0;fontFamily=LMRoman10-Regular;fontSize=16;fontColor=default;" parent="1" vertex="1">
          <mxGeometry x="280" y="360" width="160" height="30" as="geometry" />
        </mxCell>
        <mxCell id="n3f_vnQOYltsMlb5KAoW-1" style="edgeStyle=orthogonalEdgeStyle;rounded=0;orthogonalLoop=1;jettySize=auto;html=1;exitX=1;exitY=0.25;exitDx=0;exitDy=0;entryX=0;entryY=0.5;entryDx=0;entryDy=0;strokeWidth=2;" parent="1" source="kUnSIDznniqPs84h5c2G-10" target="kUnSIDznniqPs84h5c2G-1" edge="1">
          <mxGeometry relative="1" as="geometry">
            <Array as="points">
              <mxPoint x="460" y="577" />
              <mxPoint x="460" y="425" />
            </Array>
          </mxGeometry>
        </mxCell>
        <mxCell id="n3f_vnQOYltsMlb5KAoW-2" style="edgeStyle=orthogonalEdgeStyle;rounded=0;orthogonalLoop=1;jettySize=auto;html=1;exitX=1;exitY=0.5;exitDx=0;exitDy=0;entryX=0;entryY=0.5;entryDx=0;entryDy=0;strokeWidth=2;" parent="1" source="kUnSIDznniqPs84h5c2G-10" target="kUnSIDznniqPs84h5c2G-2" edge="1">
          <mxGeometry relative="1" as="geometry">
            <Array as="points">
              <mxPoint x="480" y="585" />
              <mxPoint x="480" y="495" />
            </Array>
          </mxGeometry>
        </mxCell>
        <mxCell id="n3f_vnQOYltsMlb5KAoW-3" style="edgeStyle=orthogonalEdgeStyle;rounded=0;orthogonalLoop=1;jettySize=auto;html=1;exitX=1;exitY=0.75;exitDx=0;exitDy=0;entryX=0;entryY=0.5;entryDx=0;entryDy=0;strokeWidth=2;" parent="1" source="kUnSIDznniqPs84h5c2G-10" target="kUnSIDznniqPs84h5c2G-3" edge="1">
          <mxGeometry relative="1" as="geometry">
            <Array as="points">
              <mxPoint x="500" y="593" />
              <mxPoint x="500" y="565" />
            </Array>
          </mxGeometry>
        </mxCell>
        <mxCell id="kUnSIDznniqPs84h5c2G-10" value="&lt;font style=&quot;font-size: 16px;&quot; face=&quot;LMRoman10-Regular&quot;&gt;&lt;b&gt;Signature&lt;/b&gt;&lt;br&gt;&lt;/font&gt;" style="rounded=0;whiteSpace=wrap;html=1;strokeWidth=2;" parent="1" vertex="1">
          <mxGeometry x="280.5" y="570.5" width="160" height="30" as="geometry" />
        </mxCell>
      </root>
    </mxGraphModel>
  </diagram>
</mxfile>
